<?xml version="1.0" encoding="UTF-8"?>
<svg viewBox="0 0 1000 700" xmlns="http://www.w3.org/2000/svg">
  <!-- Styles -->
  <defs>
    <style>
      .entity {
        fill: #e6f2ff;
        stroke: #3498db;
        stroke-width: 2;
        rx: 5;
        ry: 5;
      }
      .relationship {
        fill: #ffe6cc;
        stroke: #e67e22;
        stroke-width: 2;
        rx: 5;
        ry: 5;
      }
      .connector {
        stroke: #95a5a6;
        stroke-width: 2;
        fill: none;
      }
      .label {
        font-family: Arial, sans-serif;
        font-size: 12px;
        text-anchor: middle;
      }
      .entity-title {
        font-family: Arial, sans-serif;
        font-size: 14px;
        font-weight: bold;
        text-anchor: middle;
      }
      .attribute {
        font-family: Arial, sans-serif;
        font-size: 11px;
        text-anchor: start;
      }
      .pk {
        font-weight: bold;
        text-decoration: underline;
      }
      .fk {
        font-style: italic;
        fill: #3498db;
      }
      .cardinality {
        font-family: Arial, sans-serif;
        font-size: 12px;
        text-anchor: middle;
        fill: #e74c3c;
        font-weight: bold;
      }
    </style>
  </defs>

  <!-- Student Entity -->
  <rect class="entity" x="40" y="50" width="160" height="140" />
  <text class="entity-title" x="120" y="70">STUDENT</text>
  <line x1="60" y1="80" x2="180" y2="80" stroke="#3498db" stroke-width="1" />
  <text class="attribute pk" x="55" y="100">student_id</text>
  <text class="attribute" x="55" y="120">first_name</text>
  <text class="attribute" x="55" y="140">last_name</text>
  <text class="attribute" x="55" y="160">email</text>
  <text class="attribute fk" x="55" y="180">department_id</text>

  <!-- Professor Entity -->
  <rect class="entity" x="40" y="420" width="160" height="140" />
  <text class="entity-title" x="120" y="440">PROFESSOR</text>
  <line x1="60" y1="450" x2="180" y2="450" stroke="#3498db" stroke-width="1" />
  <text class="attribute pk" x="55" y="470">professor_id</text>
  <text class="attribute" x="55" y="490">first_name</text>
  <text class="attribute" x="55" y="510">last_name</text>
  <text class="attribute" x="55" y="530">email</text>
  <text class="attribute fk" x="55" y="550">department_id</text>

  <!-- Course Entity -->
  <rect class="entity" x="340" y="240" width="160" height="140" />
  <text class="entity-title" x="420" y="260">COURSE</text>
  <line x1="360" y1="270" x2="480" y2="270" stroke="#3498db" stroke-width="1" />
  <text class="attribute pk" x="355" y="290">course_id</text>
  <text class="attribute" x="355" y="310">title</text>
  <text class="attribute" x="355" y="330">credits</text>
  <text class="attribute" x="355" y="350">description</text>
  <text class="attribute fk" x="355" y="370">department_id</text>

  <!-- Term Entity -->
  <rect class="entity" x="640" y="50" width="160" height="120" />
  <text class="entity-title" x="720" y="70">TERM</text>
  <line x1="660" y1="80" x2="780" y2="80" stroke="#3498db" stroke-width="1" />
  <text class="attribute pk" x="655" y="100">term_id</text>
  <text class="attribute" x="655" y="120">name (Fall 2023)</text>
  <text class="attribute" x="655" y="140">start_date</text>
  <text class="attribute" x="655" y="160">end_date</text>

  <!-- Enrollment Entity -->
  <rect class="entity" x="340" y="50" width="160" height="120" />
  <text class="entity-title" x="420" y="70">ENROLLMENT</text>
  <line x1="360" y1="80" x2="480" y2="80" stroke="#3498db" stroke-width="1" />
  <text class="attribute pk" x="355" y="100">enrollment_id</text>
  <text class="attribute fk" x="355" y="120">student_id</text>
  <text class="attribute fk" x="355" y="140">course_id</text>
  <text class="attribute fk" x="355" y="160">term_id</text>

  <!-- Professor Course (teaches) Entity -->
  <rect class="entity" x="340" y="420" width="160" height="120" />
  <text class="entity-title" x="420" y="440">PROFESSOR_COURSE</text>
  <line x1="360" y1="450" x2="480" y2="450" stroke="#3498db" stroke-width="1" />
  <text class="attribute pk" x="355" y="470">professor_course_id</text>
  <text class="attribute fk" x="355" y="490">professor_id</text>
  <text class="attribute fk" x="355" y="510">course_id</text>
  <text class="attribute fk" x="355" y="530">term_id</text>

  <!-- Course Completion Entity -->
  <rect class="entity" x="640" y="240" width="160" height="120" />
  <text class="entity-title" x="720" y="260">COURSE_COMPLETION</text>
  <line x1="660" y1="270" x2="780" y2="270" stroke="#3498db" stroke-width="1" />
  <text class="attribute pk" x="655" y="290">completion_id</text>
  <text class="attribute fk" x="655" y="310">enrollment_id</text>
  <text class="attribute fk" x="655" y="330">grade_id</text>
  <text class="attribute" x="655" y="350">completion_date</text>

  <!-- Grade Entity -->
  <rect class="entity" x="800" y="420" width="160" height="120" />
  <text class="entity-title" x="880" y="440">GRADE</text>
  <line x1="820" y1="450" x2="940" y2="450" stroke="#3498db" stroke-width="1" />
  <text class="attribute pk" x="815" y="470">grade_id</text>
  <text class="attribute" x="815" y="490">letter (A, B, C)</text>
  <text class="attribute" x="815" y="510">gpa_points (4.0, 3.0)</text>
  <text class="attribute" x="815" y="530">description</text>

  <!-- Payment Entity -->
  <rect class="entity" x="40" y="240" width="160" height="120" />
  <text class="entity-title" x="120" y="260">PAYMENT</text>
  <line x1="60" y1="270" x2="180" y2="270" stroke="#3498db" stroke-width="1" />
  <text class="attribute pk" x="55" y="290">payment_id</text>
  <text class="attribute fk" x="55" y="310">student_id</text>
  <text class="attribute fk" x="55" y="330">term_id</text>
  <text class="attribute" x="55" y="350">amount</text>
  <text class="attribute" x="55" y="370">payment_date</text>

  <!-- Department Entity -->
  <rect class="entity" x="640" y="580" width="160" height="100" />
  <text class="entity-title" x="720" y="600">DEPARTMENT</text>
  <line x1="660" y1="610" x2="780" y2="610" stroke="#3498db" stroke-width="1" />
  <text class="attribute pk" x="655" y="630">department_id</text>
  <text class="attribute" x="655" y="650">name</text>
  <text class="attribute" x="655" y="670">code (CS, EE)</text>

  <!-- Room Entity -->
  <rect class="entity" x="800" y="580" width="160" height="100" />
  <text class="entity-title" x="880" y="600">ROOM</text>
  <line x1="820" y1="610" x2="940" y2="610" stroke="#3498db" stroke-width="1" />
  <text class="attribute pk" x="815" y="630">room_id</text>
  <text class="attribute" x="815" y="650">building</text>
  <text class="attribute" x="815" y="670">room_number</text>
  <text class="attribute" x="815" y="690">capacity</text>

  <!-- Class Schedule Entity -->
  <rect class="entity" x="640" y="420" width="160" height="120" />
  <text class="entity-title" x="720" y="440">CLASS_SCHEDULE</text>
  <line x1="660" y1="450" x2="780" y2="450" stroke="#3498db" stroke-width="1" />
  <text class="attribute pk" x="655" y="470">schedule_id</text>
  <text class="attribute fk" x="655" y="490">professor_course_id</text>
  <text class="attribute fk" x="655" y="510">room_id</text>
  <text class="attribute fk" x="655" y="530">timeslot_id</text>

  <!-- Timeslot Entity -->
  <rect class="entity" x="800" y="240" width="160" height="120" />
  <text class="entity-title" x="880" y="260">TIMESLOT</text>
  <line x1="820" y1="270" x2="940" y2="270" stroke="#3498db" stroke-width="1" />
  <text class="attribute pk" x="815" y="290">timeslot_id</text>
  <text class="attribute" x="815" y="310">day_of_week</text>
  <text class="attribute" x="815" y="330">start_time</text>
  <text class="attribute" x="815" y="350">end_time</text>

  <!-- Relationships -->
  <!-- Student-Enrollment -->
  <line class="connector" x1="200" y1="120" x2="340" y2="120" />
  <text class="cardinality" x="215" y="110">1</text>
  <text class="cardinality" x="325" y="110">N</text>

  <!-- Enrollment-Course -->
  <line class="connector" x1="420" y1="170" x2="420" y2="240" />
  <text class="cardinality" x="410" y="190">N</text>
  <text class="cardinality" x="410" y="230">1</text>

  <!-- Enrollment-Term -->
  <line class="connector" x1="500" y1="110" x2="640" y2="110" />
  <text class="cardinality" x="515" y="100">N</text>
  <text class="cardinality" x="625" y="100">1</text>

  <!-- Student-Payment -->
  <line class="connector" x1="120" y1="190" x2="120" y2="240" />
  <text class="cardinality" x="110" y="205">1</text>
  <text class="cardinality" x="110" y="230">N</text>

  <!-- Payment-Term -->
  <polyline class="connector" points="200,300 250,300 250,110 640,110" />
  <text class="cardinality" x="215" y="290">N</text>
  <text class="cardinality" x="625" y="100">1</text>

  <!-- Professor-Professor_Course -->
  <line class="connector" x1="200" y1="490" x2="340" y2="490" />
  <text class="cardinality" x="215" y="480">1</text>
  <text class="cardinality" x="325" y="480">N</text>

  <!-- Course-Professor_Course -->
  <polyline class="connector" points="420,380 420,420" />
  <text class="cardinality" x="410" y="390">1</text>
  <text class="cardinality" x="410" y="410">N</text>

  <!-- Term-Professor_Course -->
  <polyline class="connector" points="720,170 720,200 580,200 580,490 500,490" />
  <text class="cardinality" x="710" y="185">1</text>
  <text class="cardinality" x="515" y="480">N</text>

  <!-- Enrollment-Course_Completion -->
  <polyline class="connector" points="500,110 550,110 550,300 640,300" />
  <text class="cardinality" x="515" y="100">1</text>
  <text class="cardinality" x="625" y="290">1</text>

  <!-- Grade-Course_Completion -->
  <polyline class="connector" points="880,420 880,300 800,300" />
  <text class="cardinality" x="870" y="410">1</text>
  <text class="cardinality" x="815" y="290">N</text>

  <!-- Department-Student -->
  <polyline class="connector" points="640,630 20,630 20,120 40,120" />
  <text class="cardinality" x="625" y="620">1</text>
  <text class="cardinality" x="55" y="110">N</text>

  <!-- Department-Professor -->
  <polyline class="connector" points="640,630 30,630 30,490 40,490" />
  <text class="cardinality" x="625" y="620">1</text>
  <text class="cardinality" x="55" y="480">N</text>

  <!-- Department-Course -->
  <polyline class="connector" points="720,580 720,370 500,370" />
  <text class="cardinality" x="710" y="560">1</text>
  <text class="cardinality" x="515" y="360">N</text>

  <!-- Professor_Course-Class_Schedule -->
  <line class="connector" x1="500" y1="490" x2="640" y2="490" />
  <text class="cardinality" x="515" y="480">1</text>
  <text class="cardinality" x="625" y="480">N</text>

  <!-- Room-Class_Schedule -->
  <polyline class="connector" points="880,580 880,510 800,510" />
  <text class="cardinality" x="870" y="560">1</text>
  <text class="cardinality" x="815" y="500">N</text>

  <!-- Timeslot-Class_Schedule -->
  <polyline class="connector" points="880,360 880,380 600,380 600,530 640,530" />
  <text class="cardinality" x="870" y="375">1</text>
  <text class="cardinality" x="625" y="520">N</text>
</svg>